Coordinates
version=1
nRows=19
nColumns=24
inDegrees=yes

Units are S.I. units (second, meters, Newtons, ...)
If the header above contains a line with 'inDegrees', this indicates whether rotational values are in degrees (yes) or radians (no).

endheader
time	pelvis_tilt	pelvis_list	pelvis_rotation	pelvis_tx	pelvis_ty	pelvis_tz	hip_flexion_r	hip_adduction_r	hip_rotation_r	knee_angle_r	ankle_angle_r	subtalar_angle_r	mtp_angle_r	hip_flexion_l	hip_adduction_l	hip_rotation_l	knee_angle_l	ankle_angle_l	subtalar_angle_l	mtp_angle_l	lumbar_extension	lumbar_bending	lumbar_rotation
      0.50000000	      3.52289503	     -2.78671660	     -1.10216429	     -0.72998066	      0.73896402	      0.37690463	      3.55474646	      5.67886805	    -10.81100680	    -20.02528751	     20.07855216	     -2.01524315	      0.00000000	     26.34079956	     -6.54913122	     -5.31492982	    -67.60259126	     -5.48480654	    -23.11536136	      0.00000000	      0.00000000	      0.00000000	      0.00000000
      0.50666667	      3.89825515	     -2.83714054	     -1.33848217	     -0.72212606	      0.73936950	      0.37722990	      2.18596946	      5.79987483	    -10.49480160	    -19.51141105	     20.34180571	     -2.01812311	      0.00000000	     26.45484452	     -6.69190945	     -5.73588631	    -65.91696681	     -5.15758398	    -22.79289345	      0.00000000	      0.00000000	      0.00000000	      0.00000000
      0.51333333	      4.18599846	     -2.88283749	     -1.65924357	     -0.71431709	      0.73954674	      0.37758755	      0.98829465	      5.89798016	    -10.08047805	    -19.13234542	     20.62642589	     -2.08340509	      0.00000000	     26.54956524	     -6.86680763	     -6.27996153	    -64.03847207	     -4.92370879	    -22.70462228	      0.00000000	      0.00000000	      0.00000000	      0.00000000
      0.52000000	      4.12510081	     -3.12976357	     -1.79372353	     -0.70690151	      0.73897435	      0.37767127	      0.44306805	      6.14200222	    -10.14126636	    -19.20804526	     20.85389580	     -2.12432535	      0.00000000	     27.15488317	     -7.10105456	     -6.41453353	    -62.21022091	     -4.87507296	    -22.71004537	      0.00000000	      0.00000000	      0.00000000	      0.00000000
      0.52666667	      4.73042019	     -3.06713577	     -2.31226015	     -0.69879802	      0.73943059	      0.37826237	     -1.26510816	      6.15069334	     -9.21981584	    -18.57307587	     21.19127219	     -2.32088443	      0.00000000	     26.50176410	     -7.32190282	     -7.45630848	    -59.76366980	     -4.42707845	    -22.71668486	      0.00000000	      0.00000000	      0.00000000	      0.00000000
      0.53333333	      4.59405867	     -3.27153069	     -2.47866979	     -0.69108749	      0.73867059	      0.37839388	     -1.85762938	      6.38566662	     -9.06352245	    -18.45305689	     21.50382695	     -2.35459527	      0.00000000	     26.90780142	     -7.59105210	     -7.85967176	    -57.49914292	     -4.21331433	    -22.80845557	      0.00000000	      0.00000000	      0.00000000	      0.00000000
      0.54000000	      5.04301012	     -3.34646682	     -3.03014940	     -0.68340124	      0.73857328	      0.37890427	     -3.08089840	      6.43664624	     -8.36116627	    -18.37490995	     21.80357672	     -2.57490647	      0.00000000	     26.33060174	     -7.92499758	     -8.89910735	    -54.79901741	     -3.89051375	    -22.81479228	      0.00000000	      0.00000000	      0.00000000	      0.00000000
      0.54666667	      5.04933537	     -3.55882479	     -3.29081013	     -0.67571556	      0.73782424	      0.37909040	     -3.81137336	      6.65295363	     -8.04284426	    -18.30901598	     22.07356225	     -2.68930584	      0.00000000	     26.30636299	     -8.23007673	     -9.53340065	    -52.07717548	     -3.51852230	    -22.81656837	      0.00000000	      0.00000000	      0.00000000	      0.00000000
      0.55333333	      4.89828223	     -4.04090258	     -3.28650183	     -0.66828132	      0.73654828	      0.37902443	     -4.23323689	      7.14838536	     -8.24241189	    -18.48155022	     22.34559783	     -2.79815443	      0.00000000	     26.62317493	     -8.71992348	     -9.82720411	    -49.48390256	     -3.42928248	    -22.78104040	      0.00000000	      0.00000000	      0.00000000	      0.00000000
      0.56000000	      5.61195250	     -4.03841672	     -3.87124268	     -0.66016104	      0.73665390	      0.37964542	     -5.93817154	      7.08154768	     -7.40080900	    -18.11041723	     22.48696490	     -3.13263514	      0.00000000	     25.29577201	     -9.05869377	    -11.53110672	    -46.11649354	     -2.33704335	    -21.75988887	      0.00000000	      0.00000000	      0.00000000	      0.00000000
      0.56666667	      5.43945792	     -4.25493167	     -4.20410446	     -0.65252978	      0.73551771	      0.37980207	     -6.35748853	      7.24767836	     -7.11346205	    -18.28596323	     22.74697750	     -3.19713803	      0.00000000	     25.17488348	     -9.36748334	    -12.53694392	    -42.90083712	     -1.95897348	    -21.38433452	      0.00000000	      0.00000000	      0.00000000	      0.00000000
      0.57333333	      5.30878668	     -4.44933000	     -4.51214729	     -0.64479927	      0.73439827	      0.37987926	     -6.84692575	      7.36416962	     -6.92015102	    -18.42917366	     22.97701600	     -3.21073242	      0.00000000	     24.90219541	     -9.62289163	    -13.69003537	    -39.52413191	     -1.43089579	    -20.69916723	      0.00000000	      0.00000000	      0.00000000	      0.00000000
      0.58000000	      5.57244700	     -4.73194706	     -4.82241646	     -0.63686484	      0.73357151	      0.38008109	     -7.86376953	      7.52599348	     -6.76120836	    -18.44802746	     23.31476313	     -3.00254411	      0.00000000	     24.12224887	    -10.04440585	    -15.26323220	    -36.14659032	     -0.23173961	    -18.67947508	      0.00000000	      0.00000000	      0.00000000	      0.00000000
      0.58666667	      5.49374548	     -4.91118844	     -5.11016268	     -0.62896673	      0.73239110	      0.38006114	     -8.41594117	      7.56535027	     -6.71226616	    -18.61370915	     23.60780540	     -2.84092909	      0.00000000	     23.66165376	    -10.21281181	    -16.74612088	    -32.64410183	      0.66543006	    -16.91249854	      0.00000000	      0.00000000	      0.00000000	      0.00000000
      0.59333333	      5.38498822	     -5.07658687	     -5.43831710	     -0.62108100	      0.73116141	      0.37992823	     -8.86382818	      7.53600207	     -6.67709611	    -18.92397739	     23.92172464	     -2.48729967	      0.00000000	     23.15692512	    -10.28450927	    -18.28527984	    -29.05733272	      1.53517336	    -14.94940142	      0.00000000	      0.00000000	      0.00000000	      0.00000000
      0.60000000	      4.83892105	     -5.29307612	     -5.53179322	     -0.61317674	      0.72946322	      0.37947874	     -8.91129268	      7.67168964	     -6.69062722	    -19.08275303	     23.97146044	     -2.38308874	      0.00000000	     23.18932274	    -10.14228127	    -19.07960568	    -25.45432241	      1.85335619	    -13.99127486	      0.00000000	      0.00000000	      0.00000000	      0.00000000
      0.60666667	      4.94284267	     -5.28142029	     -6.08085982	     -0.60495347	      0.72839745	      0.37933743	     -9.52478130	      7.26332194	     -6.76911616	    -19.55372699	     24.60198668	     -1.43131557	      0.00000000	     22.31982522	    -10.03665327	    -21.34183722	    -22.00043313	      3.17213653	    -10.61845409	      0.00000000	      0.00000000	      0.00000000	      0.00000000
      0.61333333	      4.63498151	     -5.29788498	     -6.43508042	     -0.59674564	      0.72688281	      0.37890854	     -9.71168093	      6.98193301	     -6.83848305	    -19.96555015	     24.97973108	     -0.72303739	      0.00000000	     21.97392151	     -9.70890706	    -22.79954147	    -18.61332171	      3.85546696	     -8.39126589	      0.00000000	      0.00000000	      0.00000000	      0.00000000
      0.62000000	      4.34492503	     -5.38110377	     -6.68315900	     -0.58863411	      0.72529913	      0.37833763	     -9.85140045	      6.76195867	     -6.99680360	    -20.50150790	     25.31490941	     -0.01428652	      0.00000000	     21.70279580	     -9.34405615	    -23.83721983	    -15.48825744	      4.35733746	     -6.27900191	      0.00000000	      0.00000000	      0.00000000	      0.00000000
